<svg width="500" height="500" viewBox="0 0 500 500" fill="none" xmlns="http://www.w3.org/2000/svg">
<path d="M0 250C0 111.929 111.929 0 250 0C388.071 0 500 111.929 500 250C500 388.071 388.071 500 250 500C111.929 500 0 388.071 0 250Z" fill="#FFC222"/>
<path d="M288.155 145.118C281.647 138.609 271.095 138.609 264.585 145.118L183.128 226.655C170.121 239.675 170.127 260.772 183.139 273.783L264.645 355.29C271.155 361.798 281.707 361.798 288.217 355.29C294.725 348.782 294.725 338.228 288.217 331.72L218.455 261.958C211.946 255.45 211.946 244.898 218.455 238.388L288.155 168.688C294.665 162.179 294.665 151.627 288.155 145.118Z" fill="#0F0F0F"/>
</svg>
